PathFileType	4	(X/Y/Z)	C:/Users/opensim2020/Desktop/walking_exp_matlab/subject06_walking16_straight_04.trc																																																																																																																																																							
DataRate	CameraRate	NumFrames	NumMarkers	Units	OrigDataRate	OrigDataStartFrame	OrigNumFrames																																																																																																																																																			
100	100	8	51	mm	100	4141	352																																																																																																																																																			
Frame#	Time	LFHD			RFHD			LBHD			RBHD			C7			T10			CLAV			STRN			RBAK			LSHO			LUPA			LELB			LFRM			LWRA			LWRB			LFIN			RSHO			RUPA			RELB			RFRM			RWRA			RWRB			RFIN			LASI			RASI			LPSI			RPSI			LTHI			LKNE			LTIB			LANK			LHEE			LTOE			RTHI			RKNE			RTIB			RANK			RHEE			RTOE			*39			*40			*41			*42			*43			*44			*45			*46			*47			*48			*49			*50		
		X1	Y1	Z1	X2	Y2	Z2	X3	Y3	Z3	X4	Y4	Z4	X5	Y5	Z5	X6	Y6	Z6	X7	Y7	Z7	X8	Y8	Z8	X9	Y9	Z9	X10	Y10	Z10	X11	Y11	Z11	X12	Y12	Z12	X13	Y13	Z13	X14	Y14	Z14	X15	Y15	Z15	X16	Y16	Z16	X17	Y17	Z17	X18	Y18	Z18	X19	Y19	Z19	X20	Y20	Z20	X21	Y21	Z21	X22	Y22	Z22	X23	Y23	Z23	X24	Y24	Z24	X25	Y25	Z25	X26	Y26	Z26	X27	Y27	Z27	X28	Y28	Z28	X29	Y29	Z29	X30	Y30	Z30	X31	Y31	Z31	X32	Y32	Z32	X33	Y33	Z33	X34	Y34	Z34	X35	Y35	Z35	X36	Y36	Z36	X37	Y37	Z37	X38	Y38	Z38	X39	Y39	Z39	X40	Y40	Z40	X41	Y41	Z41	X42	Y42	Z42	X43	Y43	Z43	X44	Y44	Z44	X45	Y45	Z45	X46	Y46	Z46	X47	Y47	Z47	X48	Y48	Z48	X49	Y49	Z49	X50	Y50	Z50	X51	Y51	Z51
																																																																																																																																																										
309	3.08	667.54865	1654.94104	-1513.04541	649.71985	1636.29932	-1383.07068	536.12085	1600.58911	-1535.94434	519.73444	1587.02148	-1408.05786	527.37604	1441.18054	-1485.69519	491.94226	1111.7644	-1477.16553	636.02887	1362.21448	-1475.44568	674.52948	1186.55908	-1486.62915	448.20544	1268.13025	-1415.74744	600.87292	1399.74097	-1639.51172	643.04889	1204.67798	-1716.12061	675.64624	1096.0072	-1730.36609	780.59119	987.96466	-1730.08423	887.98395	941.13519	-1664.15247	851.63123	894.96259	-1703.11792	933.60974	860.18561	-1687.34839	578.22278	1389.20923	-1318.24329	526.63367	1190.05396	-1239.4906	531.11963	1067.98181	-1229.11536	536.36035	947.83167	-1210.92847	589.3501	804.63947	-1233.96265	530.40753	809.99005	-1201.26343	560.9649	731.05823	-1195.04907	663.67303	948.74548	-1590.39233	679.89331	960.59631	-1368.22095	508.36996	977.70074	-1549.29785	527.79138	980.51361	-1382.02051	557.78833	640.22247	-1630.57288	527.25928	477.82321	-1606.10828	420.30374	242.27812	-1589.88452	367.12421	78.34267	-1540.58459	323.65787	70.84881	-1495.08875	507.03809	40.69147	-1538.71423	691.26855	633.47864	-1302.30066	732.87421	518.38409	-1335.31287	764.20654	256.07776	-1327.30774	811.88184	74.45567	-1367.25366	783.68488	39.94107	-1414.57385	969.53223	77.17236	-1371.29712	559.73743	1689.29834	-1466.21204	NaN	NaN	NaN	NaN	NaN	NaN	NaN	NaN	NaN	NaN	NaN	NaN	NaN	NaN	NaN	NaN	NaN	NaN	NaN	NaN	NaN	NaN	NaN	NaN	NaN	NaN	NaN	NaN	NaN	NaN	NaN	NaN	NaN
310	3.09	674.48499	1654.52222	-1511.28674	656.75995	1635.62598	-1381.32092	543.37457	1599.91174	-1534.19592	526.75714	1586.11365	-1406.41724	534.67303	1440.37573	-1484.34119	500.22827	1110.78699	-1475.71436	643.75592	1361.63403	-1474.09412	682.73352	1186.08887	-1485.70374	456.00949	1266.77368	-1414.59216	608.48083	1399.20898	-1638.01599	650.89581	1204.15295	-1714.60889	682.60889	1095.1969	-1728.76843	786.38129	985.9325	-1728.43787	892.89673	937.54559	-1662.17383	856.31543	892.08813	-1701.72827	937.65594	856.03253	-1685.32666	585.60498	1388.1792	-1316.7699	533.79797	1188.9978	-1238.4458	538.34454	1066.90942	-1227.96558	543.57422	946.72778	-1209.88538	596.78644	803.52594	-1232.80212	537.61975	808.85974	-1200.45044	568.26514	730.03564	-1194.06299	671.0116	947.8222	-1590.14795	688.88879	959.74097	-1368.02148	516.06488	977.1145	-1547.59888	536.7796	979.97473	-1380.33936	563.25616	639.83002	-1630.04858	531.75641	477.5394	-1605.69617	422.48251	242.98224	-1589.73584	367.62405	79.50923	-1540.75635	324.23093	72.35751	-1495.42212	507.17694	40.64038	-1538.72266	699.2486	632.13275	-1301.81958	739.92084	516.82458	-1335.12927	768.58478	254.4101	-1327.15588	813.45215	72.22868	-1368.01257	784.68842	39.36667	-1415.29871	971.2981	71.53547	-1373.45923	566.57745	1688.53503	-1464.41077	NaN	NaN	NaN	NaN	NaN	NaN	NaN	NaN	NaN	NaN	NaN	NaN	NaN	NaN	NaN	NaN	NaN	NaN	NaN	NaN	NaN	NaN	NaN	NaN	NaN	NaN	NaN	NaN	NaN	NaN	NaN	NaN	NaN
311	3.1	681.44025	1654.30054	-1509.48254	663.5639	1634.98389	-1379.5741	550.26624	1599.36377	-1532.62634	533.75	1585.30042	-1404.87549	542.06989	1439.64893	-1482.71533	508.81201	1109.94397	-1473.9751	651.50049	1361.27466	-1472.68042	690.9552	1185.71851	-1484.72107	463.87869	1265.44043	-1413.41248	616.07196	1398.7854	-1636.56177	658.65228	1203.56897	-1713.0094	689.14917	1094.40051	-1727.25354	792.02191	983.8172	-1726.69897	897.72028	933.73657	-1660.27173	860.82452	889.04474	-1700.37695	941.48297	851.63861	-1683.43774	593.27295	1387.21362	-1315.25659	541.11023	1187.93799	-1237.3031	545.73584	1065.83215	-1226.86816	550.93561	945.64838	-1208.86072	604.35388	802.49207	-1231.48499	545.0838	807.87164	-1199.53552	575.62817	729.07043	-1193.00977	678.59241	946.96997	-1589.84644	697.91412	959.01434	-1367.79321	523.85406	976.64246	-1545.95923	545.57855	979.81244	-1378.4364	568.96344	639.43512	-1629.36133	536.52618	477.29395	-1605.08337	424.82257	243.83197	-1589.547	368.47131	80.81384	-1540.99487	324.54724	74.17845	-1495.77014	507.35303	40.63546	-1538.7345	707.32837	631.09094	-1301.17896	746.70984	515.72339	-1334.98901	773.48615	253.29459	-1328.11804	816.7215	72.1583	-1368.03149	786.1709	41.64035	-1415.67834	975.13007	64.89055	-1374.06714	573.45123	1687.93298	-1462.57642	NaN	NaN	NaN	NaN	NaN	NaN	NaN	NaN	NaN	NaN	NaN	NaN	NaN	NaN	NaN	NaN	NaN	NaN	NaN	NaN	NaN	NaN	NaN	NaN	NaN	NaN	NaN	NaN	NaN	NaN	NaN	NaN	NaN
312	3.11	688.30103	1654.62622	-1507.67859	670.51746	1634.94678	-1377.76697	557.39581	1599.06555	-1530.59375	541.00311	1584.70239	-1403.1322	549.6311	1439.45203	-1480.96045	517.4494	1109.33289	-1472.54004	659.25629	1361.23621	-1471.30554	699.01013	1185.72131	-1483.80176	471.6825	1264.48474	-1412.0719	623.3941	1398.57178	-1635.25281	666.23315	1202.9209	-1711.36877	695.98743	1093.53296	-1725.49768	797.32739	981.63629	-1724.73535	902.36346	929.69684	-1658.43835	864.96368	885.9339	-1699.16699	944.88995	847.00525	-1681.79956	601.10767	1386.51807	-1313.63708	548.80182	1187.02087	-1236.04614	553.33698	1064.91895	-1225.60303	558.54681	944.70801	-1207.80066	611.70392	801.43927	-1230.4502	552.43066	806.83069	-1198.73633	582.94818	728.12524	-1192.08374	686.37555	946.23792	-1589.64404	706.63617	958.24591	-1367.38477	531.73444	976.42841	-1544.50476	554.4173	980.15698	-1376.70715	574.90027	638.93616	-1628.65149	541.57092	477.10095	-1604.09338	427.57645	244.94717	-1589.27527	369.1532	82.4795	-1541.54834	325.22491	76.32369	-1496.61902	507.56409	40.61134	-1538.66321	715.28241	631.23169	-1300.10071	752.79169	515.64319	-1334.05249	778.47375	253.35854	-1326.93713	821.20013	72.24252	-1366.88403	789.64203	42.29612	-1413.99597	978.60321	61.05754	-1374.29602	580.14923	1687.65405	-1460.67212	NaN	NaN	NaN	NaN	NaN	NaN	NaN	NaN	NaN	NaN	NaN	NaN	NaN	NaN	NaN	NaN	NaN	NaN	NaN	NaN	NaN	NaN	NaN	NaN	NaN	NaN	NaN	NaN	NaN	NaN	NaN	NaN	NaN
313	3.12	695.16553	1655.37549	-1505.72803	677.47675	1635.39465	-1375.87122	564.45514	1599.32104	-1529.13074	548.19971	1584.61877	-1401.3905	557.2774	1439.90173	-1479.39502	525.875	1109.18384	-1471.70276	666.91815	1361.60413	-1469.90479	706.96417	1185.92688	-1482.86841	479.59735	1264.06824	-1410.59949	630.90857	1398.56628	-1634.06665	673.61102	1202.3844	-1709.68994	702.81311	1092.8335	-1723.64819	802.75623	979.53162	-1723.21497	906.66205	925.52454	-1656.68542	868.65997	882.7066	-1697.95813	947.80695	842.25891	-1680.41162	609.13452	1386.15564	-1311.86133	556.8493	1186.37695	-1234.73083	561.42017	1064.25952	-1224.38257	566.36572	943.99615	-1206.71326	619.54236	800.82214	-1229.43408	560.02075	806.13983	-1197.85742	590.39008	727.53241	-1190.97339	694.23267	945.86945	-1589.05505	715.36658	958.08551	-1366.87439	539.9873	976.48749	-1543.354	563.00818	981.32343	-1375.43848	581.60669	638.76501	-1627.69714	547.26971	477.17969	-1603.14624	430.74838	246.28419	-1588.83618	370.11554	84.58009	-1541.802	325.99509	78.93625	-1497.02222	507.80231	40.59381	-1538.54565	723.03455	632.53955	-1299.03833	758.67499	516.67938	-1332.09277	784.18201	254.18307	-1324.83557	823.73871	71.44842	-1366.21277	790.69684	43.74047	-1412.823	980.97449	58.10023	-1373.83167	586.84515	1687.79944	-1458.71423	NaN	NaN	NaN	NaN	NaN	NaN	NaN	NaN	NaN	NaN	NaN	NaN	NaN	NaN	NaN	NaN	NaN	NaN	NaN	NaN	NaN	NaN	NaN	NaN	NaN	NaN	NaN	NaN	NaN	NaN	NaN	NaN	NaN
314	3.13	702.07819	1656.2251	-1503.82117	684.47589	1635.91846	-1374.11523	571.64777	1599.77307	-1527.20605	555.42291	1584.74048	-1399.56177	565.13257	1440.3302	-1477.65613	534.34137	1109.39832	-1470.82922	674.6886	1362.24561	-1468.46741	714.97437	1186.5249	-1481.75818	487.59482	1264.28577	-1408.89514	638.35376	1398.97778	-1632.78076	680.76288	1202.15967	-1707.93738	709.60895	1092.44299	-1721.66113	807.75391	977.56671	-1721.3772	910.62897	921.23712	-1655.01001	871.83716	879.35211	-1696.7373	950.13202	837.43323	-1679.26245	617.43365	1386.05518	-1310.13538	565.38818	1186.14185	-1233.34973	569.73175	1063.96411	-1223.15271	574.48364	943.5462	-1205.64026	627.07874	800.3197	-1228.69678	567.78564	805.78436	-1196.99463	598.21777	727.19873	-1190.21948	702.13757	945.79523	-1588.10461	724.03168	958.62994	-1366.12793	548.11981	976.91595	-1542.66846	571.13837	982.95691	-1374.68994	588.47174	638.70166	-1626.81274	553.54187	477.31516	-1602.09656	434.12912	248.02045	-1588.4823	371.34799	86.97626	-1541.99109	327.00305	81.97543	-1497.25427	507.90253	40.3239	-1538.41321	730.63251	634.40942	-1297.97693	765.73328	517.96985	-1330.20471	789.16302	255.01773	-1323.30627	825.11127	71.6525	-1364.82495	791.4967	44.29809	-1411.896	981.96277	54.8321	-1372.6449	593.67017	1688.2157	-1456.69189	NaN	NaN	NaN	NaN	NaN	NaN	NaN	NaN	NaN	NaN	NaN	NaN	NaN	NaN	NaN	NaN	NaN	NaN	NaN	NaN	NaN	NaN	NaN	NaN	NaN	NaN	NaN	NaN	NaN	NaN	NaN	NaN	NaN
315	3.14	709.08923	1657.19116	-1501.94226	691.22894	1636.3374	-1372.48804	578.74963	1600.37842	-1525.41272	562.70618	1585.09094	-1397.66345	572.92157	1440.9928	-1475.99609	542.50568	1110.10693	-1470.02966	682.42706	1363.02747	-1467.09216	723.10132	1187.38489	-1480.59399	495.73917	1264.85718	-1407.04602	645.83325	1399.73181	-1631.39197	687.59308	1202.35266	-1706.08057	716.38019	1092.54016	-1719.4801	812.51843	975.82349	-1719.51892	914.18835	916.94684	-1653.40442	874.39227	876.19348	-1695.56873	951.84442	832.60608	-1678.4679	625.74713	1386.38794	-1308.60889	573.96509	1186.25476	-1231.97327	578.40845	1064.07166	-1221.96716	582.89893	943.64081	-1204.65747	635.01758	800.25049	-1228.00476	575.87787	805.86328	-1196.01489	605.90869	727.1189	-1189.50537	710.30756	946.03851	-1586.95325	732.74426	960.05042	-1365.38171	556.3241	977.54504	-1542.15198	579.19159	984.54358	-1374.38818	595.82751	638.88989	-1625.63293	560.30988	477.63574	-1601.06226	437.83475	249.97368	-1588.12402	372.84415	89.67702	-1542.1543	328.10947	85.4734	-1497.51111	508.21655	40.30007	-1538.323	738.52209	636.5354	-1296.99097	773.01038	519.466	-1328.99194	792.83563	255.33482	-1321.69714	825.44153	71.42514	-1363.90283	791.72864	44.51484	-1411.15063	982.14471	51.92179	-1371.37341	600.67596	1688.75098	-1454.70264	NaN	NaN	NaN	NaN	NaN	NaN	NaN	NaN	NaN	NaN	NaN	NaN	NaN	NaN	NaN	NaN	NaN	NaN	NaN	NaN	NaN	NaN	NaN	NaN	NaN	NaN	NaN	NaN	NaN	NaN	NaN	NaN	NaN
316	3.15	716.10437	1658.2876	-1500.05981	698.85962	1637.42261	-1370.42212	586.00006	1601.07922	-1523.43811	570.04706	1585.58569	-1395.76123	580.65247	1441.67566	-1474.32202	550.60101	1111.10913	-1469.05737	690.2804	1363.94702	-1465.67554	731.25281	1188.31555	-1479.44275	503.88422	1265.72754	-1405.43005	653.44	1400.8064	-1629.98328	694.36255	1202.99463	-1704.07556	723.06421	1093.06396	-1717.10339	816.73804	974.31061	-1717.45605	917.22186	912.69531	-1651.92444	876.45068	873.08264	-1694.48462	952.88635	827.84271	-1677.9425	634.09741	1387.12634	-1307.15967	582.99445	1186.81323	-1230.6228	587.35889	1064.6239	-1220.87207	591.60931	944.19452	-1203.56958	643.10822	800.63074	-1227.43005	584.11871	806.39795	-1194.9928	613.85236	727.57343	-1188.75879	718.55688	946.59924	-1585.4021	740.58203	961.76477	-1364.3623	564.6283	978.39929	-1541.74719	587.00763	986.32233	-1374.07263	603.53668	639.17004	-1624.38733	567.58728	478.15796	-1600.05859	441.71417	252.18976	-1587.85852	374.42331	92.80566	-1542.59705	329.56992	89.27034	-1498.11633	508.49957	40.27781	-1538.29102	746.59869	638.573	-1296.29333	779.92712	520.75085	-1327.92456	795.6795	255.81445	-1320.30396	826.05957	71.25779	-1363.12659	792.06348	44.79151	-1410.31079	982.54553	50.2658	-1370.48315	607.58459	1689.46338	-1452.67322	NaN	NaN	NaN	NaN	NaN	NaN	NaN	NaN	NaN	NaN	NaN	NaN	NaN	NaN	NaN	NaN	NaN	NaN	NaN	NaN	NaN	NaN	NaN	NaN	NaN	NaN	NaN	NaN	NaN	NaN	NaN	NaN	NaN
